<svg width="23" height="28" viewBox="0 0 23 28" fill="none" xmlns="http://www.w3.org/2000/svg">
<path fill-rule="evenodd" clip-rule="evenodd" d="M11.5 7C9.2632 7 7.44995 8.8804 7.44995 11.2C7.44995 13.5196 9.2632 15.4 11.5 15.4C13.7367 15.4 15.55 13.5196 15.55 11.2C15.55 8.8804 13.7367 7 11.5 7ZM10.15 11.2C10.15 10.4268 10.7544 9.8 11.5 9.8C12.2455 9.8 12.85 10.4268 12.85 11.2C12.85 11.9732 12.2455 12.6 11.5 12.6C10.7544 12.6 10.15 11.9732 10.15 11.2Z" fill="#A4A2A7"/>
<path fill-rule="evenodd" clip-rule="evenodd" d="M18.5554 2.77274C14.502 -0.924249 8.49782 -0.924248 4.44445 2.77275C-0.0967093 6.91464 -0.572237 14.1695 3.37318 18.9344L10.4757 27.5121C10.7322 27.8218 11.1063 28 11.4999 28C11.8936 28 12.2677 27.8218 12.5241 27.5121L19.6267 18.9344C23.5721 14.1695 23.0966 6.91464 18.5554 2.77274ZM6.22758 4.87526C9.26132 2.10825 13.7385 2.10825 16.7723 4.87526C20.1974 7.99923 20.5653 13.5028 17.5783 17.1103L11.4999 24.451L5.4216 17.1103C2.43455 13.5028 2.80246 7.99923 6.22758 4.87526Z" fill="#A4A2A7"/>
</svg>
