<svg width="35" height="26" viewBox="0 0 35 26" fill="none" xmlns="http://www.w3.org/2000/svg">
<path d="M29.7915 4.25C29.7915 2.325 28.254 0.75 26.3749 0.75H21.2499V4.25H26.3749V8.8875L20.4299 16.5H14.4165V7.75H7.58321C3.80779 7.75 0.749878 10.8825 0.749878 14.75V20H4.16654C4.16654 22.905 6.45571 25.25 9.29154 25.25C12.1274 25.25 14.4165 22.905 14.4165 20H22.0699L29.7915 10.1125V4.25ZM4.16654 16.5V14.75C4.16654 12.825 5.70404 11.25 7.58321 11.25H10.9999V16.5H4.16654ZM9.29154 21.75C8.35196 21.75 7.58321 20.9625 7.58321 20H10.9999C10.9999 20.9625 10.2311 21.75 9.29154 21.75Z" fill="#00B4D8"/>
<path d="M14.4165 2.5H5.87488V6H14.4165V2.5Z" fill="#00B4D8"/>
<path d="M29.7915 14.75C26.9557 14.75 24.6665 17.095 24.6665 20C24.6665 22.905 26.9557 25.25 29.7915 25.25C32.6273 25.25 34.9165 22.905 34.9165 20C34.9165 17.095 32.6273 14.75 29.7915 14.75ZM29.7915 21.75C28.8519 21.75 28.0832 20.9625 28.0832 20C28.0832 19.0375 28.8519 18.25 29.7915 18.25C30.7311 18.25 31.4998 19.0375 31.4998 20C31.4998 20.9625 30.7311 21.75 29.7915 21.75Z" fill="#00B4D8"/>
</svg>
