<svg width="25" height="34" viewBox="0 0 25 34" fill="none" xmlns="http://www.w3.org/2000/svg">
<path d="M12.5 0.25C11.7333 0.25 10.95 0.32 10.1666 0.495C5.56662 1.4225 1.89996 5.325 1.03329 10.155C0.23329 14.7225 1.83329 18.9225 4.73329 21.635C5.44996 22.3 5.83329 23.2275 5.83329 24.2075V28.25C5.83329 30.175 7.33329 31.75 9.16662 31.75H9.63329C10.2166 32.8 11.2666 33.5 12.5 33.5C13.7333 33.5 14.8 32.8 15.3666 31.75H15.8333C17.6666 31.75 19.1666 30.175 19.1666 28.25V24.2075C19.1666 23.245 19.5333 22.3 20.2333 21.6525C22.65 19.4125 24.1666 16.14 24.1666 12.5C24.1666 5.7275 18.95 0.25 12.5 0.25ZM15.8333 24.75H9.16662V23H15.8333V24.75ZM9.16662 28.25V26.5H15.8333V28.25H9.16662ZM18.0166 19.045C17.8666 19.185 17.75 19.36 17.6166 19.5H7.36662C7.23329 19.3425 7.11662 19.1675 6.96662 19.0275C4.76662 16.9625 3.78329 13.8825 4.31662 10.8025C4.91662 7.4075 7.58329 4.59 10.8 3.925C11.3666 3.8025 11.9333 3.75 12.5 3.75C17.1 3.75 20.8333 7.67 20.8333 12.5C20.8333 15.0025 19.8166 17.3825 18.0166 19.045Z" fill="#00B4D8"/>
<path d="M13.3333 14.25H11.6666V19.5H13.3333V14.25Z" fill="#00B4D8"/>
<path d="M9.79911 10.5287L8.62061 11.7661L12.1561 15.4784L13.3346 14.241L9.79911 10.5287Z" fill="#00B4D8"/>
<path d="M11.6683 14.2587L12.8468 15.4961L16.3823 11.7838L15.2038 10.5464L11.6683 14.2587Z" fill="#00B4D8"/>
</svg>
