<svg width="44" height="44" viewBox="0 0 44 44" fill="none" xmlns="http://www.w3.org/2000/svg">
<path d="M33.4998 39.6663H4.33317V10.4997H23.0832V6.33301H4.33317C2.0415 6.33301 0.166504 8.20801 0.166504 10.4997V39.6663C0.166504 41.958 2.0415 43.833 4.33317 43.833H33.4998C35.7915 43.833 37.6665 41.958 37.6665 39.6663V20.9163H33.4998V39.6663ZM17.2707 33.0622L13.1873 28.1455L7.45817 35.4997H30.3748L22.9998 25.6872L17.2707 33.0622ZM37.6665 6.33301V0.0830078H33.4998V6.33301H27.2498C27.2707 6.35384 27.2498 10.4997 27.2498 10.4997H33.4998V16.7288C33.5207 16.7497 37.6665 16.7288 37.6665 16.7288V10.4997H43.9165V6.33301H37.6665Z" fill="#00B4D8"/>
</svg>
