<svg width="18" height="14" viewBox="0 0 18 14" fill="currentColor" xmlns="http://www.w3.org/2000/svg">
<path d="M13.9167 14C15.7151 14 17.1667 12.66 17.1667 11C17.1667 9.34 15.7151 8 13.9167 8C12.5084 8 11.3167 8.84 10.8617 10H5.40175L7.55758 6.94C7.87175 6.98 8.18591 7 8.50008 7C8.81425 7 9.12842 6.98 9.44258 6.94L10.5476 8.51C11.0026 7.98 11.5876 7.56 12.2809 7.3L11.6309 6.37C14.2526 5.27 16.0834 2.84 16.0834 0H0.916748C0.916748 2.84 2.74758 5.27 5.38008 6.37L1.10091 12.45C0.775915 12.91 0.916748 13.53 1.41508 13.83C1.91341 14.13 2.58508 14 2.91008 13.54L3.99341 11.99H10.8617C11.3167 13.16 12.5084 14 13.9167 14ZM13.9167 10C14.5126 10 15.0001 10.45 15.0001 11C15.0001 11.55 14.5126 12 13.9167 12C13.3209 12 12.8334 11.55 12.8334 11C12.8334 10.45 13.3209 10 13.9167 10ZM3.53841 2H13.4617C12.6276 3.76 10.7101 5 8.50008 5C6.29008 5 4.37258 3.76 3.53841 2Z" fill="#878787"/>
</svg>
