<svg width="24" height="24" viewBox="0 0 24 24" fill="currentColor" xmlns="http://www.w3.org/2000/svg">
<g clip-path="url(#clip0_7048_11615)">
<path d="M17.7499 2.42633L6.24992 2.41675C5.18617 2.41675 4.33325 3.26966 4.33325 4.33341V19.6667C4.33325 20.7305 5.18617 21.5834 6.24992 21.5834H17.7499C18.8137 21.5834 19.6666 20.7305 19.6666 19.6667V4.33341C19.6666 3.26966 18.8137 2.42633 17.7499 2.42633ZM17.7499 19.6667H6.24992L6.24033 4.33341H17.7499V19.6667Z" fill="#878787"/>
<path d="M8.16659 7.20842C8.69586 7.20842 9.12492 6.77935 9.12492 6.25008C9.12492 5.72081 8.69586 5.29175 8.16659 5.29175C7.63731 5.29175 7.20825 5.72081 7.20825 6.25008C7.20825 6.77935 7.63731 7.20842 8.16659 7.20842Z" fill="#878787"/>
<path d="M11.0416 7.20842C11.5709 7.20842 11.9999 6.77935 11.9999 6.25008C11.9999 5.72081 11.5709 5.29175 11.0416 5.29175C10.5123 5.29175 10.0833 5.72081 10.0833 6.25008C10.0833 6.77935 10.5123 7.20842 11.0416 7.20842Z" fill="#878787"/>
<path d="M11.9999 18.7083C14.6449 18.7083 16.7916 16.5617 16.7916 13.9167C16.7916 11.2717 14.6449 9.125 11.9999 9.125C9.35492 9.125 7.20825 11.2717 7.20825 13.9167C7.20825 16.5617 9.35492 18.7083 11.9999 18.7083ZM14.2616 11.655C15.5074 12.9008 15.5074 14.9325 14.2616 16.1783C13.0158 17.4242 10.9841 17.4242 9.73825 16.1783L14.2616 11.655Z" fill="#878787"/>
</g>
<defs>
<clipPath id="clip0_7048_11615">
<rect width="23" height="23" fill="white" transform="translate(0.5 0.5)"/>
</clipPath>
</defs>
</svg>
