<svg width="24" height="24" viewBox="0 0 24 24" fill="currentColor" xmlns="http://www.w3.org/2000/svg">
<g clip-path="url(#clip0_7048_11639)">
<path d="M4.81258 11.9999C6.13576 11.9999 7.20842 10.9273 7.20842 9.60409C7.20842 8.2809 6.13576 7.20825 4.81258 7.20825C3.4894 7.20825 2.41675 8.2809 2.41675 9.60409C2.41675 10.9273 3.4894 11.9999 4.81258 11.9999Z" fill="#0077B6"/>
<path d="M9.12508 8.16667C10.4483 8.16667 11.5209 7.09402 11.5209 5.77083C11.5209 4.44765 10.4483 3.375 9.12508 3.375C7.8019 3.375 6.72925 4.44765 6.72925 5.77083C6.72925 7.09402 7.8019 8.16667 9.12508 8.16667Z" fill="#0077B6"/>
<path d="M14.8751 8.16667C16.1983 8.16667 17.2709 7.09402 17.2709 5.77083C17.2709 4.44765 16.1983 3.375 14.8751 3.375C13.5519 3.375 12.4792 4.44765 12.4792 5.77083C12.4792 7.09402 13.5519 8.16667 14.8751 8.16667Z" fill="#0077B6"/>
<path d="M19.1876 11.9999C20.5108 11.9999 21.5834 10.9273 21.5834 9.60409C21.5834 8.2809 20.5108 7.20825 19.1876 7.20825C17.8644 7.20825 16.7917 8.2809 16.7917 9.60409C16.7917 10.9273 17.8644 11.9999 19.1876 11.9999Z" fill="#0077B6"/>
<path d="M17.1175 14.7408C16.2838 13.7633 15.5842 12.9296 14.7409 11.9521C14.3 11.4346 13.7346 10.9171 13.0638 10.6871C12.9584 10.6488 12.853 10.62 12.7475 10.6008C12.508 10.5625 12.2492 10.5625 12 10.5625C11.7509 10.5625 11.4921 10.5625 11.243 10.6104C11.1375 10.6296 11.0321 10.6583 10.9267 10.6967C10.2559 10.9267 9.70004 11.4442 9.24962 11.9617C8.41587 12.9392 7.71629 13.7729 6.87295 14.7504C5.61754 16.0058 4.07462 17.3954 4.36212 19.3408C4.64004 20.3183 5.33962 21.2862 6.59504 21.5642C7.29462 21.7079 9.52753 21.1425 11.9042 21.1425H12.0767C14.4534 21.1425 16.6863 21.6983 17.3859 21.5642C18.6413 21.2862 19.3409 20.3087 19.6188 19.3408C19.9159 17.3858 18.373 15.9962 17.1175 14.7408Z" fill="#0077B6"/>
</g>
<defs>
<clipPath id="clip0_7048_11639">
<rect width="23" height="23" fill="white" transform="translate(0.5 0.5)"/>
</clipPath>
</defs>
</svg>
