<svg width="11" height="10" viewBox="0 0 11 10" fill="none" xmlns="http://www.w3.org/2000/svg">
<path d="M2.46667 1.11111C2.5 1.60556 2.58333 2.08889 2.71667 2.55L2.05 3.21667C1.82222 2.55 1.67778 1.84444 1.62778 1.11111H2.46667ZM7.94444 7.78889C8.41667 7.92222 8.9 8.00556 9.38889 8.03889V8.86667C8.65556 8.81667 7.95 8.67222 7.27778 8.45L7.94444 7.78889ZM3 0H1.05556C0.75 0 0.5 0.25 0.5 0.555556C0.5 5.77222 4.72778 10 9.94444 10C10.25 10 10.5 9.75 10.5 9.44444V7.50556C10.5 7.2 10.25 6.95 9.94444 6.95C9.25556 6.95 8.58333 6.83889 7.96111 6.63333C7.90556 6.61111 7.84445 6.60556 7.78889 6.60556C7.64445 6.60556 7.50556 6.66111 7.39444 6.76667L6.17222 7.98889C4.6 7.18333 3.31111 5.9 2.51111 4.32778L3.73333 3.10556C3.88889 2.95 3.93333 2.73333 3.87222 2.53889C3.66667 1.91667 3.55556 1.25 3.55556 0.555556C3.55556 0.25 3.30556 0 3 0Z" fill="#878787"/>
</svg>
