<svg width="16" height="16" viewBox="0 0 16 16" fill="none" xmlns="http://www.w3.org/2000/svg">
<path fill-rule="evenodd" clip-rule="evenodd" d="M6.58849 0.5C9.94558 0.5 12.677 3.23142 12.677 6.58852C12.677 7.92959 12.2359 9.16666 11.4984 10.1738L14.8249 13.5003C15.1906 13.866 15.1906 14.459 14.8249 14.8248C14.4591 15.1906 13.8661 15.1906 13.5003 14.8248L10.1739 11.4983C9.16677 12.2358 7.92959 12.677 6.58852 12.677C3.23142 12.677 0.5 9.94561 0.5 6.58852C0.5 3.23142 3.2314 0.5 6.58849 0.5ZM2.3734 6.58851C2.3734 8.91287 4.26416 10.8036 6.58852 10.8036C8.91285 10.8036 10.8036 8.91287 10.8036 6.58851C10.8036 4.26415 8.91288 2.3734 6.58852 2.3734C4.26416 2.3734 2.3734 4.26415 2.3734 6.58851Z" fill="white"/>
</svg>
