<svg width="29" height="34" viewBox="0 0 29 34" fill="none" xmlns="http://www.w3.org/2000/svg">
<path d="M24.5716 9.9998L14.6666 0.112305L4.76163 9.9998C2.03163 12.7298 0.666626 16.3698 0.666626 19.8698C0.666626 23.3698 2.03163 27.0623 4.76163 29.7923C7.49163 32.5223 11.0791 33.9048 14.6666 33.9048C18.2541 33.9048 21.8416 32.5223 24.5716 29.7923C27.3016 27.0623 28.6666 23.3698 28.6666 19.8698C28.6666 16.3698 27.3016 12.7298 24.5716 9.9998ZM4.16663 20.4998C4.18413 16.9998 5.25163 14.7773 7.24663 12.7998L14.6666 5.2223L22.0866 12.8873C24.0816 14.8473 25.1491 16.9998 25.1666 20.4998H4.16663Z" fill="#00B4D8"/>
</svg>
