<svg width="23" height="20" viewBox="0 0 23 20" fill="currentColor" xmlns="http://www.w3.org/2000/svg">
<path d="M20.1667 11V2.83C20.1667 1.27 18.7909 0 17.1009 0C16.2884 0 15.5084 0.3 14.9342 0.83L13.5801 2.08C13.4067 2.03 13.2226 2 13.0276 2C12.5942 2 12.1934 2.12 11.8576 2.32L14.8476 5.08C15.0642 4.77 15.1942 4.4 15.1942 4C15.1942 3.82 15.1617 3.66 15.1184 3.49L16.4726 2.24C16.6351 2.09 16.8626 2 17.1009 2C17.5992 2 18.0001 2.37 18.0001 2.83V11H10.5792C10.2542 10.79 9.96175 10.55 9.69091 10.28L8.17425 8.73C7.96841 8.52 7.70841 8.35 7.42675 8.23C7.09091 8.08 6.72258 8 6.34341 8C5.00008 8.01 3.91675 9.01 3.91675 10.25V11H0.666748V17C0.666748 18.1 1.64175 19 2.83341 19C2.83341 19.55 3.32091 20 3.91675 20H19.0834C19.6792 20 20.1667 19.55 20.1667 19C21.3584 19 22.3334 18.1 22.3334 17V11H20.1667ZM20.1667 17H2.83341V13H20.1667V17Z" fill="#878787"/>
</svg>
